<svg width="180" height="70" xmlns="http://www.w3.org/2000/svg">
  <text x="17" y="36" font-family="Arial" font-size="9.5" fill="black">https://admin-shell.io/api/v3.0/shells</text>
  <!-- Horizontal braces and sections -->
  <path style="fill:#4573C6;stroke-width:0.156296" d="m 27.391418,44.776305 c -0.08817,-1.0417 -0.228327,-2.10113 -0.311487,-2.3543 l -0.151169,-0.46034 h -5.355158 -5.355147 l -0.170853,-0.43404 c -0.405827,-1.03113 -0.616954,-4.61086 -0.271927,-4.61086 0.127955,0 0.195779,0.34963 0.220213,1.1351 0.0427,1.37241 0.147325,2.29773 0.342032,3.02492 l 0.145803,0.5445 5.40051,0.0442 5.400501,0.0438 0.138984,0.54655 c 0.17668,0.69472 0.267079,0.68741 0.494291,-0.04 l 0.183224,-0.58653 5.402418,-0.0441 5.40242,-0.0438 0.169299,-0.84081 c 0.09311,-0.46244 0.213375,-1.50295 0.267265,-2.31226 0.05625,-0.84532 0.162973,-1.47145 0.250753,-1.47145 0.212167,0 0.05113,3.42043 -0.201848,4.28818 l -0.196131,0.67267 -5.399899,0.0441 -5.399905,0.0443 -0.161827,0.56761 c -0.175603,0.61595 -0.448234,3.80519 -0.342853,4.01077 0.03555,0.0694 -0.02624,0.12617 -0.137281,0.12617 -0.15096,0 -0.242405,-0.4781 -0.362228,-1.89399 z m 44.413835,1.59968 c -0.01152,-0.90967 -0.296017,-3.57969 -0.422285,-3.96416 l -0.147836,-0.45016 H 56.141408 41.04769 l -0.164999,-0.46243 c -0.382287,-1.07144 -0.623602,-4.58247 -0.314955,-4.58247 0.14149,0 0.234679,0.6562 0.358198,2.52246 0.0398,0.60118 0.147195,1.33867 0.238677,1.63881 l 0.166325,0.54577 15.124652,0.0428 15.124644,0.0428 0.135398,0.54655 c 0.07448,0.30059 0.181856,0.54654 0.238641,0.54654 0.0568,0 0.164168,-0.24595 0.238634,-0.54654 l 0.135398,-0.54655 15.142481,-0.0428 15.142486,-0.0428 0.13869,-0.42229 c 0.1069,-0.32549 0.43387,-3.45458 0.43455,-4.15862 5e-5,-0.0694 0.0749,-0.12617 0.16625,-0.12617 0.22175,0 0.0717,3.16721 -0.19912,4.20411 l -0.19768,0.75671 -15.14153,0.0428 -15.141532,0.0428 -0.138694,0.42227 c -0.106908,0.32551 -0.433866,3.45461 -0.434549,4.15866 -5.6e-5,0.0694 -0.06548,0.12617 -0.145384,0.12617 -0.07988,0 -0.146955,-0.13246 -0.149018,-0.29432 z m 50.070027,-1.37399 c -0.052,-0.91758 -0.17645,-1.95809 -0.27668,-2.31226 l -0.18223,-0.64398 -8.32381,-0.0434 -8.32383,-0.0431 -0.21092,-0.58439 c -0.11601,-0.32138 -0.27472,-1.28561 -0.35273,-2.14268 -0.1877,-2.06262 -0.18234,-2.31508 0.0493,-2.31508 0.14504,0 0.22062,0.43408 0.2905,1.66829 0.052,0.91758 0.17644,1.9581 0.27668,2.31226 l 0.18221,0.64397 8.32383,0.0432 8.3238,0.0434 0.22637,0.62715 0.22635,0.62712 0.23918,-0.58647 0.23918,-0.58648 8.35151,-0.084 8.35152,-0.084 0.17905,-0.83995 c 0.0984,-0.46199 0.22224,-1.50246 0.27505,-2.31226 0.0529,-0.80976 0.16126,-1.4723 0.241,-1.4723 0.20458,0 0.0361,3.4453 -0.20966,4.28816 l -0.19615,0.67268 -8.2991,0.0431 c -6.51611,0.0342 -8.33216,0.0895 -8.45296,0.258 -0.20917,0.29179 -0.45838,2.15673 -0.45972,3.44026 -0.002,0.76948 -0.0535,1.05103 -0.19716,1.05103 -0.14505,0 -0.22064,-0.43409 -0.2905,-1.66832 z m 31.53414,-0.13952 c -0.0443,-0.99423 -0.15781,-2.05283 -0.25212,-2.35238 l -0.17145,-0.54464 -5.83275,-0.0441 -5.83274,-0.0436 -0.19229,-0.67265 c -0.25695,-0.89887 -0.44726,-4.28818 -0.24078,-4.28818 0.089,0 0.22001,0.79346 0.31241,1.89185 0.0876,1.04047 0.23034,2.09996 0.31732,2.35429 l 0.15811,0.46244 h 5.80487 5.80486 l 0.18385,0.58858 c 0.22788,0.72949 0.31816,0.73717 0.49494,0.042 l 0.13899,-0.54654 5.83336,-0.0436 5.83334,-0.0438 0.17143,-0.54463 c 0.0943,-0.29957 0.20775,-1.35814 0.25211,-2.35241 0.0609,-1.3652 0.12899,-1.80775 0.278,-1.80775 0.35675,0 0.15676,3.55322 -0.25951,4.61083 l -0.17085,0.43408 h -5.79097 -5.79093 l -0.15697,0.46244 c -0.0863,0.25434 -0.22731,1.3138 -0.3133,2.35431 -0.20767,2.51288 -0.46886,2.5508 -0.57893,0.084 z"/>

  <!-- Text elements -->
  <text x="20" y="52" font-family="Arial" font-size="4" fill="black">Protocol</text>
  <text x="67" y="52" font-family="Arial" font-size="4" fill="black">Host</text>
  <text x="115" y="52" font-family="Arial" font-size="4" fill="black">Version</text>
  <text x="116.5" y="57" font-family="Arial" font-size="4" fill="black">Prefix</text>
  <text x="145" y="52" font-family="Arial" font-size="4" fill="black">Functional</text>
  <text x="146" y="57" font-family="Arial" font-size="4" fill="black">Endpoint</text>
</svg>
