<?xml version="1.0" encoding="us-ascii" standalone="no"?>
<svg xmlns="http://www.w3.org/2000/svg" xmlns:xlink="http://www.w3.org/1999/xlink" contentStyleType="text/css"
     height="488px" preserveAspectRatio="none" style="width:1354px;height:488px;background:#FFFFFF;" version="1.1"
     viewBox="0 0 1354 488" width="1354px" zoomAndPan="magnify">
    <defs/>
    <g>
        <rect fill="#DDDDDD" height="476.1875" style="stroke:#181818;stroke-width:0.5;" width="195" x="492.5" y="6"/>
        <text fill="#000000" font-family="sans-serif" font-size="13" font-weight="bold" lengthAdjust="spacing"
              textLength="132" x="524" y="18.0669">Discovery Service
        </text>
        <rect fill="#DDDDDD" height="476.1875" style="stroke:#181818;stroke-width:0.5;" width="179" x="689.5" y="6"/>
        <text fill="#000000" font-family="sans-serif" font-size="13" font-weight="bold" lengthAdjust="spacing"
              textLength="122" x="718" y="18.0669">Registry Service
        </text>
        <rect fill="#DDDDDD" height="476.1875" style="stroke:#181818;stroke-width:0.5;" width="194" x="870.5" y="6"/>
        <text fill="#000000" font-family="sans-serif" font-size="13" font-weight="bold" lengthAdjust="spacing"
              textLength="188" x="873.5" y="18.0669">AAS or Submodel Service
        </text>
        <rect fill="#DDDDDD" height="476.1875" style="stroke:#181818;stroke-width:0.5;" width="282" x="1066.5" y="6"/>
        <text fill="#000000" font-family="sans-serif" font-size="13" font-weight="bold" lengthAdjust="spacing"
              textLength="276" x="1069.5" y="18.0669">AAS or Submodel Repository Service
        </text>
        <line style="stroke:#181818;stroke-width:0.5;stroke-dasharray:5.0,5.0;" x1="253" x2="253" y1="56.4297"
              y2="447.8906"/>
        <line style="stroke:#181818;stroke-width:0.5;stroke-dasharray:5.0,5.0;" x1="589.5" x2="589.5" y1="56.4297"
              y2="447.8906"/>
        <line style="stroke:#181818;stroke-width:0.5;stroke-dasharray:5.0,5.0;" x1="778.5" x2="778.5" y1="56.4297"
              y2="447.8906"/>
        <line style="stroke:#181818;stroke-width:0.5;stroke-dasharray:5.0,5.0;" x1="967.5" x2="967.5" y1="56.4297"
              y2="447.8906"/>
        <line style="stroke:#181818;stroke-width:0.5;stroke-dasharray:5.0,5.0;" x1="1207" x2="1207" y1="56.4297"
              y2="447.8906"/>
        <rect fill="#E2E2F0" height="30.2969" rx="2.5" ry="2.5" style="stroke:#181818;stroke-width:0.5;" width="144"
              x="181" y="25.1328"/>
        <text fill="#000000" font-family="sans-serif" font-size="14" lengthAdjust="spacing" textLength="130" x="188"
              y="45.1279">Client Application
        </text>
        <rect fill="#E2E2F0" height="30.2969" rx="2.5" ry="2.5" style="stroke:#181818;stroke-width:0.5;" width="144"
              x="181" y="446.8906"/>
        <text fill="#000000" font-family="sans-serif" font-size="14" lengthAdjust="spacing" textLength="130" x="188"
              y="466.8857">Client Application
        </text>
        <rect fill="#E2E2F0" height="30.2969" rx="2.5" ry="2.5" style="stroke:#181818;stroke-width:0.5;" width="187"
              x="496.5" y="25.1328"/>
        <text fill="#000000" font-family="sans-serif" font-size="14" lengthAdjust="spacing" textLength="173" x="503.5"
              y="45.1279">AAS Discovery Interface
        </text>
        <rect fill="#E2E2F0" height="30.2969" rx="2.5" ry="2.5" style="stroke:#181818;stroke-width:0.5;" width="187"
              x="496.5" y="446.8906"/>
        <text fill="#000000" font-family="sans-serif" font-size="14" lengthAdjust="spacing" textLength="173" x="503.5"
              y="466.8857">AAS Discovery Interface
        </text>
        <rect fill="#E2E2F0" height="30.2969" rx="2.5" ry="2.5" style="stroke:#181818;stroke-width:0.5;" width="171"
              x="693.5" y="25.1328"/>
        <text fill="#000000" font-family="sans-serif" font-size="14" lengthAdjust="spacing" textLength="157" x="700.5"
              y="45.1279">AAS Registy Interface
        </text>
        <rect fill="#E2E2F0" height="30.2969" rx="2.5" ry="2.5" style="stroke:#181818;stroke-width:0.5;" width="171"
              x="693.5" y="446.8906"/>
        <text fill="#000000" font-family="sans-serif" font-size="14" lengthAdjust="spacing" textLength="157" x="700.5"
              y="466.8857">AAS Registy Interface
        </text>
        <rect fill="#E2E2F0" height="30.2969" rx="2.5" ry="2.5" style="stroke:#181818;stroke-width:0.5;" width="156"
              x="889.5" y="25.1328"/>
        <text fill="#000000" font-family="sans-serif" font-size="14" lengthAdjust="spacing" textLength="142" x="896.5"
              y="45.1279">Submodel Interface
        </text>
        <rect fill="#E2E2F0" height="30.2969" rx="2.5" ry="2.5" style="stroke:#181818;stroke-width:0.5;" width="156"
              x="889.5" y="446.8906"/>
        <text fill="#000000" font-family="sans-serif" font-size="14" lengthAdjust="spacing" textLength="142" x="896.5"
              y="466.8857">Submodel Interface
        </text>
        <rect fill="#E2E2F0" height="30.2969" rx="2.5" ry="2.5" style="stroke:#181818;stroke-width:0.5;" width="239"
              x="1088" y="25.1328"/>
        <text fill="#000000" font-family="sans-serif" font-size="14" lengthAdjust="spacing" textLength="225" x="1095"
              y="45.1279">Submodel Repository Interface
        </text>
        <rect fill="#E2E2F0" height="30.2969" rx="2.5" ry="2.5" style="stroke:#181818;stroke-width:0.5;" width="239"
              x="1088" y="446.8906"/>
        <text fill="#000000" font-family="sans-serif" font-size="14" lengthAdjust="spacing" textLength="225" x="1095"
              y="466.8857">Submodel Repository Interface
        </text>
        <line style="stroke:#181818;stroke-width:1.0;" x1="253" x2="295" y1="87.5625" y2="87.5625"/>
        <line style="stroke:#181818;stroke-width:1.0;" x1="295" x2="295" y1="87.5625" y2="100.5625"/>
        <line style="stroke:#181818;stroke-width:1.0;" x1="254" x2="295" y1="100.5625" y2="100.5625"/>
        <polygon fill="#181818" points="264,96.5625,254,100.5625,264,104.5625,260,100.5625"
                 style="stroke:#181818;stroke-width:1.0;"/>
        <text fill="#000000" font-family="sans-serif" font-size="13" lengthAdjust="spacing" textLength="109" x="260"
              y="82.4966">select asset links
        </text>
        <polygon fill="#181818" points="578,125.6953,588,129.6953,578,133.6953,582,129.6953"
                 style="stroke:#181818;stroke-width:1.0;"/>
        <line style="stroke:#181818;stroke-width:1.0;" x1="253" x2="584" y1="129.6953" y2="129.6953"/>
        <text fill="#000000" font-family="sans-serif" font-size="13" lengthAdjust="spacing" textLength="313" x="260"
              y="124.6294">SearchAllAssetAdministrationShellIdsByAssetLink
        </text>
        <polygon fill="#181818" points="264,154.8281,254,158.8281,264,162.8281,260,158.8281"
                 style="stroke:#181818;stroke-width:1.0;"/>
        <line style="stroke:#181818;stroke-width:1.0;stroke-dasharray:2.0,2.0;" x1="258" x2="589" y1="158.8281"
              y2="158.8281"/>
        <text fill="#000000" font-family="sans-serif" font-size="13" lengthAdjust="spacing" textLength="67" x="270"
              y="153.7622">IDs of AAS
        </text>
        <line style="stroke:#181818;stroke-width:1.0;" x1="253" x2="295" y1="187.9609" y2="187.9609"/>
        <line style="stroke:#181818;stroke-width:1.0;" x1="295" x2="295" y1="187.9609" y2="200.9609"/>
        <line style="stroke:#181818;stroke-width:1.0;" x1="254" x2="295" y1="200.9609" y2="200.9609"/>
        <polygon fill="#181818" points="264,196.9609,254,200.9609,264,204.9609,260,200.9609"
                 style="stroke:#181818;stroke-width:1.0;"/>
        <text fill="#000000" font-family="sans-serif" font-size="13" lengthAdjust="spacing" textLength="85" x="260"
              y="182.895">select AAS ID
        </text>
        <polygon fill="#181818" points="767,226.0938,777,230.0938,767,234.0938,771,230.0938"
                 style="stroke:#181818;stroke-width:1.0;"/>
        <line style="stroke:#181818;stroke-width:1.0;" x1="253" x2="773" y1="230.0938" y2="230.0938"/>
        <text fill="#000000" font-family="sans-serif" font-size="13" lengthAdjust="spacing" textLength="275" x="260"
              y="225.0278">GetAssetAdministrationShellDescriptorById
        </text>
        <polygon fill="#181818" points="264,255.2266,254,259.2266,264,263.2266,260,259.2266"
                 style="stroke:#181818;stroke-width:1.0;"/>
        <line style="stroke:#181818;stroke-width:1.0;stroke-dasharray:2.0,2.0;" x1="258" x2="778" y1="259.2266"
              y2="259.2266"/>
        <text fill="#000000" font-family="sans-serif" font-size="13" lengthAdjust="spacing" textLength="262" x="270"
              y="254.1606">AAS Descriptor with Submodel Endpoints
        </text>
        <line style="stroke:#181818;stroke-width:1.0;" x1="253" x2="295" y1="288.3594" y2="288.3594"/>
        <line style="stroke:#181818;stroke-width:1.0;" x1="295" x2="295" y1="288.3594" y2="301.3594"/>
        <line style="stroke:#181818;stroke-width:1.0;" x1="254" x2="295" y1="301.3594" y2="301.3594"/>
        <polygon fill="#181818" points="264,297.3594,254,301.3594,264,305.3594,260,301.3594"
                 style="stroke:#181818;stroke-width:1.0;"/>
        <text fill="#000000" font-family="sans-serif" font-size="13" lengthAdjust="spacing" textLength="238" x="260"
              y="283.2935">extract relevant Submodel Endpoints
        </text>
        <polygon fill="#181818" points="955.5,329.4922,965.5,333.4922,955.5,337.4922,959.5,333.4922"
                 style="stroke:#181818;stroke-width:1.0;"/>
        <line style="stroke:#181818;stroke-width:1.0;" x1="253" x2="961.5" y1="333.4922" y2="333.4922"/>
        <text fill="#000000" font-family="sans-serif" font-size="13" lengthAdjust="spacing" textLength="87" x="260"
              y="328.4263">GetSubmodel
        </text>
        <path d="M26,314.3594 L26,339.3594 L248,339.3594 L248,324.3594 L238,314.3594 L26,314.3594 " fill="#FEFFDD"
              style="stroke:#181818;stroke-width:0.5;"/>
        <path d="M238,314.3594 L238,324.3594 L248,324.3594 L238,314.3594 " fill="#FEFFDD"
              style="stroke:#181818;stroke-width:0.5;"/>
        <text fill="#000000" font-family="sans-serif" font-size="13" lengthAdjust="spacing" textLength="201" x="32"
              y="331.4263">get first Submodel via Endpoint
        </text>
        <polygon fill="#181818" points="264,361.625,254,365.625,264,369.625,260,365.625"
                 style="stroke:#181818;stroke-width:1.0;"/>
        <line style="stroke:#181818;stroke-width:1.0;stroke-dasharray:2.0,2.0;" x1="258" x2="966.5" y1="365.625"
              y2="365.625"/>
        <text fill="#000000" font-family="sans-serif" font-size="13" lengthAdjust="spacing" textLength="64" x="270"
              y="360.5591">Submodel
        </text>
        <polygon fill="#181818" points="1195.5,393.7578,1205.5,397.7578,1195.5,401.7578,1199.5,397.7578"
                 style="stroke:#181818;stroke-width:1.0;"/>
        <line style="stroke:#181818;stroke-width:1.0;" x1="253" x2="1201.5" y1="397.7578" y2="397.7578"/>
        <text fill="#000000" font-family="sans-serif" font-size="13" lengthAdjust="spacing" textLength="114" x="260"
              y="392.6919">GetSubmodelById
        </text>
        <path d="M5,378.625 L5,403.625 L248,403.625 L248,388.625 L238,378.625 L5,378.625 " fill="#FEFFDD"
              style="stroke:#181818;stroke-width:0.5;"/>
        <path d="M238,378.625 L238,388.625 L248,388.625 L238,378.625 " fill="#FEFFDD"
              style="stroke:#181818;stroke-width:0.5;"/>
        <text fill="#000000" font-family="sans-serif" font-size="13" lengthAdjust="spacing" textLength="222" x="11"
              y="395.6919">get second Submodel via Endpoint
        </text>
        <polygon fill="#181818" points="264,425.8906,254,429.8906,264,433.8906,260,429.8906"
                 style="stroke:#181818;stroke-width:1.0;"/>
        <line style="stroke:#181818;stroke-width:1.0;stroke-dasharray:2.0,2.0;" x1="258" x2="1206.5" y1="429.8906"
              y2="429.8906"/>
        <text fill="#000000" font-family="sans-serif" font-size="13" lengthAdjust="spacing" textLength="64" x="270"
              y="424.8247">Submodel
        </text><!--SRC=[ZP9DRi8m48NtESKeUouGLPL2KrMHoeQSm3WJ6DNObcrIk7rjan-70cALo7d-vkMzqSmuugIPTF0X2Fs3MSY7rr9hGPmvKZBFicodpf1NPBdgqLoWGTCJnpm3q0ccB9jP4s3-0EQJMZeq7GltKBRWcGDuYtkoRicz1K-QaNizU48D8cMWEUsEgaNno3GrcyYST2y3jwYL9QSU1z9iWcQ9JsxTcpJalteVIod0ea0Ush7eG93yiQai3RtmHfZXXrA8CgZBzaWon1QBR0ueHDtQzIL-_FQaaVEsMYtRAw2kBAWkd3xn52Afg-p6pzHL0L_Un0Cd5LfkIFiarfUwlN6I8E8IJLhu9NUOE_YKhLOadRrd4iz-ddTflDa-zl7_Mcezh4AqFEeogHo2mCvbUvzzHyOca9xO18e51dNw7rVU14icNHTZCIk6i9ndaIkFVNtWi6_pp3y0]-->
    </g>
</svg>