<?xml version="1.0" encoding="us-ascii" standalone="no"?>
<svg xmlns="http://www.w3.org/2000/svg" xmlns:xlink="http://www.w3.org/1999/xlink" contentStyleType="text/css"
     height="576px" preserveAspectRatio="none" style="width:1570px;height:576px;background:#FFFFFF;" version="1.1"
     viewBox="0 0 1570 576" width="1570px" zoomAndPan="magnify">
    <defs/>
    <g>
        <rect fill="#DDDDDD" height="564.7188" style="stroke:#181818;stroke-width:0.5;" width="195" x="362.5" y="6"/>
        <text fill="#000000" font-family="sans-serif" font-size="13" font-weight="bold" lengthAdjust="spacing"
              textLength="132" x="394" y="18.0669">Discovery Service
        </text>
        <rect fill="#DDDDDD" height="564.7188" style="stroke:#181818;stroke-width:0.5;" width="179" x="559.5" y="6"/>
        <text fill="#000000" font-family="sans-serif" font-size="13" font-weight="bold" lengthAdjust="spacing"
              textLength="156" x="571" y="18.0669">AAS Registry Service
        </text>
        <rect fill="#DDDDDD" height="564.7188" style="stroke:#181818;stroke-width:0.5;" width="222" x="740.5" y="6"/>
        <text fill="#000000" font-family="sans-serif" font-size="13" font-weight="bold" lengthAdjust="spacing"
              textLength="200" x="751.5" y="18.0669">Submodel Registry Service
        </text>
        <rect fill="#DDDDDD" height="564.7188" style="stroke:#181818;stroke-width:0.5;" width="256" x="964.5" y="6"/>
        <text fill="#000000" font-family="sans-serif" font-size="13" font-weight="bold" lengthAdjust="spacing"
              textLength="232" x="976.5" y="18.0669">AAS or AAS Repository Service
        </text>
        <rect fill="#DDDDDD" height="564.7188" style="stroke:#181818;stroke-width:0.5;" width="342" x="1222.5" y="6"/>
        <text fill="#000000" font-family="sans-serif" font-size="13" font-weight="bold" lengthAdjust="spacing"
              textLength="320" x="1233.5" y="18.0669">Submodel or Submodel Repository Service
        </text>
        <line style="stroke:#181818;stroke-width:0.5;stroke-dasharray:5.0,5.0;" x1="123" x2="123" y1="56.4297"
              y2="536.4219"/>
        <line style="stroke:#181818;stroke-width:0.5;stroke-dasharray:5.0,5.0;" x1="459.5" x2="459.5" y1="56.4297"
              y2="536.4219"/>
        <line style="stroke:#181818;stroke-width:0.5;stroke-dasharray:5.0,5.0;" x1="648.5" x2="648.5" y1="56.4297"
              y2="536.4219"/>
        <line style="stroke:#181818;stroke-width:0.5;stroke-dasharray:5.0,5.0;" x1="851.5" x2="851.5" y1="56.4297"
              y2="536.4219"/>
        <line style="stroke:#181818;stroke-width:0.5;stroke-dasharray:5.0,5.0;" x1="1092.5" x2="1092.5" y1="56.4297"
              y2="536.4219"/>
        <line style="stroke:#181818;stroke-width:0.5;stroke-dasharray:5.0,5.0;" x1="1393.5" x2="1393.5" y1="56.4297"
              y2="536.4219"/>
        <rect fill="#E2E2F0" height="30.2969" rx="2.5" ry="2.5" style="stroke:#181818;stroke-width:0.5;" width="144"
              x="51" y="25.1328"/>
        <text fill="#000000" font-family="sans-serif" font-size="14" lengthAdjust="spacing" textLength="130" x="58"
              y="45.1279">Client Application
        </text>
        <rect fill="#E2E2F0" height="30.2969" rx="2.5" ry="2.5" style="stroke:#181818;stroke-width:0.5;" width="144"
              x="51" y="535.4219"/>
        <text fill="#000000" font-family="sans-serif" font-size="14" lengthAdjust="spacing" textLength="130" x="58"
              y="555.417">Client Application
        </text>
        <rect fill="#E2E2F0" height="30.2969" rx="2.5" ry="2.5" style="stroke:#181818;stroke-width:0.5;" width="187"
              x="366.5" y="25.1328"/>
        <text fill="#000000" font-family="sans-serif" font-size="14" lengthAdjust="spacing" textLength="173" x="373.5"
              y="45.1279">AAS Discovery Interface
        </text>
        <rect fill="#E2E2F0" height="30.2969" rx="2.5" ry="2.5" style="stroke:#181818;stroke-width:0.5;" width="187"
              x="366.5" y="535.4219"/>
        <text fill="#000000" font-family="sans-serif" font-size="14" lengthAdjust="spacing" textLength="173" x="373.5"
              y="555.417">AAS Discovery Interface
        </text>
        <rect fill="#E2E2F0" height="30.2969" rx="2.5" ry="2.5" style="stroke:#181818;stroke-width:0.5;" width="171"
              x="563.5" y="25.1328"/>
        <text fill="#000000" font-family="sans-serif" font-size="14" lengthAdjust="spacing" textLength="157" x="570.5"
              y="45.1279">AAS Registy Interface
        </text>
        <rect fill="#E2E2F0" height="30.2969" rx="2.5" ry="2.5" style="stroke:#181818;stroke-width:0.5;" width="171"
              x="563.5" y="535.4219"/>
        <text fill="#000000" font-family="sans-serif" font-size="14" lengthAdjust="spacing" textLength="157" x="570.5"
              y="555.417">AAS Registy Interface
        </text>
        <rect fill="#E2E2F0" height="30.2969" rx="2.5" ry="2.5" style="stroke:#181818;stroke-width:0.5;" width="214"
              x="744.5" y="25.1328"/>
        <text fill="#000000" font-family="sans-serif" font-size="14" lengthAdjust="spacing" textLength="200" x="751.5"
              y="45.1279">Submodel Registy Interface
        </text>
        <rect fill="#E2E2F0" height="30.2969" rx="2.5" ry="2.5" style="stroke:#181818;stroke-width:0.5;" width="214"
              x="744.5" y="535.4219"/>
        <text fill="#000000" font-family="sans-serif" font-size="14" lengthAdjust="spacing" textLength="200" x="751.5"
              y="555.417">Submodel Registy Interface
        </text>
        <rect fill="#E2E2F0" height="30.2969" rx="2.5" ry="2.5" style="stroke:#181818;stroke-width:0.5;" width="248"
              x="968.5" y="25.1328"/>
        <text fill="#000000" font-family="sans-serif" font-size="14" lengthAdjust="spacing" textLength="234" x="975.5"
              y="45.1279">AAS or AAS Repository Interface
        </text>
        <rect fill="#E2E2F0" height="30.2969" rx="2.5" ry="2.5" style="stroke:#181818;stroke-width:0.5;" width="248"
              x="968.5" y="535.4219"/>
        <text fill="#000000" font-family="sans-serif" font-size="14" lengthAdjust="spacing" textLength="234" x="975.5"
              y="555.417">AAS or AAS Repository Interface
        </text>
        <rect fill="#E2E2F0" height="30.2969" rx="2.5" ry="2.5" style="stroke:#181818;stroke-width:0.5;" width="334"
              x="1226.5" y="25.1328"/>
        <text fill="#000000" font-family="sans-serif" font-size="14" lengthAdjust="spacing" textLength="320" x="1233.5"
              y="45.1279">Submodel or Submodel Repository Interface
        </text>
        <rect fill="#E2E2F0" height="30.2969" rx="2.5" ry="2.5" style="stroke:#181818;stroke-width:0.5;" width="334"
              x="1226.5" y="535.4219"/>
        <text fill="#000000" font-family="sans-serif" font-size="14" lengthAdjust="spacing" textLength="320" x="1233.5"
              y="555.417">Submodel or Submodel Repository Interface
        </text>
        <line style="stroke:#181818;stroke-width:1.0;" x1="123" x2="165" y1="87.5625" y2="87.5625"/>
        <line style="stroke:#181818;stroke-width:1.0;" x1="165" x2="165" y1="87.5625" y2="100.5625"/>
        <line style="stroke:#181818;stroke-width:1.0;" x1="124" x2="165" y1="100.5625" y2="100.5625"/>
        <polygon fill="#181818" points="134,96.5625,124,100.5625,134,104.5625,130,100.5625"
                 style="stroke:#181818;stroke-width:1.0;"/>
        <text fill="#000000" font-family="sans-serif" font-size="13" lengthAdjust="spacing" textLength="128" x="130"
              y="82.4966">selection asset links
        </text>
        <polygon fill="#181818" points="448,125.6953,458,129.6953,448,133.6953,452,129.6953"
                 style="stroke:#181818;stroke-width:1.0;"/>
        <line style="stroke:#181818;stroke-width:1.0;" x1="123" x2="454" y1="129.6953" y2="129.6953"/>
        <text fill="#000000" font-family="sans-serif" font-size="13" lengthAdjust="spacing" textLength="313" x="130"
              y="124.6294">SearchAllAssetAdministrationShellIdsByAssetLink
        </text>
        <polygon fill="#181818" points="134,154.8281,124,158.8281,134,162.8281,130,158.8281"
                 style="stroke:#181818;stroke-width:1.0;"/>
        <line style="stroke:#181818;stroke-width:1.0;stroke-dasharray:2.0,2.0;" x1="128" x2="459" y1="158.8281"
              y2="158.8281"/>
        <text fill="#000000" font-family="sans-serif" font-size="13" lengthAdjust="spacing" textLength="67" x="140"
              y="153.7622">IDs of AAS
        </text>
        <line style="stroke:#181818;stroke-width:1.0;" x1="123" x2="165" y1="187.9609" y2="187.9609"/>
        <line style="stroke:#181818;stroke-width:1.0;" x1="165" x2="165" y1="187.9609" y2="200.9609"/>
        <line style="stroke:#181818;stroke-width:1.0;" x1="124" x2="165" y1="200.9609" y2="200.9609"/>
        <polygon fill="#181818" points="134,196.9609,124,200.9609,134,204.9609,130,200.9609"
                 style="stroke:#181818;stroke-width:1.0;"/>
        <text fill="#000000" font-family="sans-serif" font-size="13" lengthAdjust="spacing" textLength="85" x="130"
              y="182.895">select AAS ID
        </text>
        <polygon fill="#181818" points="637,226.0938,647,230.0938,637,234.0938,641,230.0938"
                 style="stroke:#181818;stroke-width:1.0;"/>
        <line style="stroke:#181818;stroke-width:1.0;" x1="123" x2="643" y1="230.0938" y2="230.0938"/>
        <text fill="#000000" font-family="sans-serif" font-size="13" lengthAdjust="spacing" textLength="275" x="130"
              y="225.0278">GetAssetAdministrationShellDescriptorById
        </text>
        <polygon fill="#181818" points="134,255.2266,124,259.2266,134,263.2266,130,259.2266"
                 style="stroke:#181818;stroke-width:1.0;"/>
        <line style="stroke:#181818;stroke-width:1.0;stroke-dasharray:2.0,2.0;" x1="128" x2="648" y1="259.2266"
              y2="259.2266"/>
        <text fill="#000000" font-family="sans-serif" font-size="13" lengthAdjust="spacing" textLength="217" x="140"
              y="254.1606">AAS Descriptor with AAS Endpoint
        </text>
        <polygon fill="#181818" points="1080.5,294.9258,1090.5,298.9258,1080.5,302.9258,1084.5,298.9258"
                 style="stroke:#181818;stroke-width:1.0;"/>
        <line style="stroke:#181818;stroke-width:1.0;" x1="123" x2="1086.5" y1="298.9258" y2="298.9258"/>
        <text fill="#000000" font-family="sans-serif" font-size="13" lengthAdjust="spacing" textLength="412" x="130"
              y="293.8599">GetAssetAdministrationShell or GetAssetAdministrationShellById
        </text>
        <path d="M18,272.2266 L18,312.2266 L118,312.2266 L118,282.2266 L108,272.2266 L18,272.2266 " fill="#FEFFDD"
              style="stroke:#181818;stroke-width:0.5;"/>
        <path d="M108,272.2266 L108,282.2266 L118,282.2266 L108,272.2266 " fill="#FEFFDD"
              style="stroke:#181818;stroke-width:0.5;"/>
        <text fill="#000000" font-family="sans-serif" font-size="13" lengthAdjust="spacing" textLength="51" x="24"
              y="289.2935">get AAS
        </text>
        <text fill="#000000" font-family="sans-serif" font-size="13" lengthAdjust="spacing" textLength="79" x="24"
              y="304.4263">via Endpoint
        </text>
        <polygon fill="#181818" points="134,334.625,124,338.625,134,342.625,130,338.625"
                 style="stroke:#181818;stroke-width:1.0;"/>
        <line style="stroke:#181818;stroke-width:1.0;stroke-dasharray:2.0,2.0;" x1="128" x2="1091.5" y1="338.625"
              y2="338.625"/>
        <text fill="#000000" font-family="sans-serif" font-size="13" lengthAdjust="spacing" textLength="149" x="140"
              y="333.5591">AAS with Submodel IDs
        </text>
        <line style="stroke:#181818;stroke-width:1.0;" x1="123" x2="165" y1="367.7578" y2="367.7578"/>
        <line style="stroke:#181818;stroke-width:1.0;" x1="165" x2="165" y1="367.7578" y2="380.7578"/>
        <line style="stroke:#181818;stroke-width:1.0;" x1="124" x2="165" y1="380.7578" y2="380.7578"/>
        <polygon fill="#181818" points="134,376.7578,124,380.7578,134,384.7578,130,380.7578"
                 style="stroke:#181818;stroke-width:1.0;"/>
        <text fill="#000000" font-family="sans-serif" font-size="13" lengthAdjust="spacing" textLength="195" x="130"
              y="362.6919">extract relevant Submodel IDs
        </text>
        <polygon fill="#181818" points="839.5,405.8906,849.5,409.8906,839.5,413.8906,843.5,409.8906"
                 style="stroke:#181818;stroke-width:1.0;"/>
        <line style="stroke:#181818;stroke-width:1.0;" x1="123" x2="845.5" y1="409.8906" y2="409.8906"/>
        <text fill="#000000" font-family="sans-serif" font-size="13" lengthAdjust="spacing" textLength="180" x="130"
              y="404.8247">GetSubmodelDescriptorById
        </text>
        <polygon fill="#181818" points="134,435.0234,124,439.0234,134,443.0234,130,439.0234"
                 style="stroke:#181818;stroke-width:1.0;"/>
        <line style="stroke:#181818;stroke-width:1.0;stroke-dasharray:2.0,2.0;" x1="128" x2="850.5" y1="439.0234"
              y2="439.0234"/>
        <text fill="#000000" font-family="sans-serif" font-size="13" lengthAdjust="spacing" textLength="306" x="140"
              y="433.9575">SubmodelDescritpor with endpoint of Submodel
        </text>
        <polygon fill="#181818" points="1381.5,474.7227,1391.5,478.7227,1381.5,482.7227,1385.5,478.7227"
                 style="stroke:#181818;stroke-width:1.0;"/>
        <line style="stroke:#181818;stroke-width:1.0;" x1="123" x2="1387.5" y1="478.7227" y2="478.7227"/>
        <text fill="#000000" font-family="sans-serif" font-size="13" lengthAdjust="spacing" textLength="222" x="130"
              y="473.6567">GetSubmodel or GetSubmodelById
        </text>
        <path d="M5,452.0234 L5,492.0234 L118,492.0234 L118,462.0234 L108,452.0234 L5,452.0234 " fill="#FEFFDD"
              style="stroke:#181818;stroke-width:0.5;"/>
        <path d="M108,452.0234 L108,462.0234 L118,462.0234 L108,452.0234 " fill="#FEFFDD"
              style="stroke:#181818;stroke-width:0.5;"/>
        <text fill="#000000" font-family="sans-serif" font-size="13" lengthAdjust="spacing" textLength="88" x="11"
              y="469.0903">get submodel
        </text>
        <text fill="#000000" font-family="sans-serif" font-size="13" lengthAdjust="spacing" textLength="79" x="11"
              y="484.2231">via Endpoint
        </text>
        <polygon fill="#181818" points="134,514.4219,124,518.4219,134,522.4219,130,518.4219"
                 style="stroke:#181818;stroke-width:1.0;"/>
        <line style="stroke:#181818;stroke-width:1.0;stroke-dasharray:2.0,2.0;" x1="128" x2="1392.5" y1="518.4219"
              y2="518.4219"/>
        <text fill="#000000" font-family="sans-serif" font-size="13" lengthAdjust="spacing" textLength="64" x="140"
              y="513.356">Submodel
        </text><!--SRC=[ZLFRReCm37tFLrXzxm-WQH8TquIqlemleE2srh8aIZBM_lsIb41WfUo5YtDyV7pig5fRQaZLmi8B9tIlsi2c_yoLujJKbgJOCCOEyWARWamZEzHNg51trE260QY49i-h4UF9N036I2aiwcFjyr2qu3XxOW_xm1CPE-MUam-Oo7qBF62klWzViaM-Jb_j9-opn1NnKiDDZfA6h5nsY3migl-RjTw7oqcahPQhzjDk5jBlrMMiNuNjSzoF30noRFnIE5g35ZY9JvCYqnN8dAnQD-USyzoZy_QBXBSuh5LrHixBrkokuV3TCKMUf-rskaiPb8K1UVJHPLd1pR9WCpt3N3DuSo8Mb1He6atAsR6xbkrCIK8HLdh0mW_PSuYzYbP94ZOj7gRziAeVo8FZ84L8Yy3nQDa9RpsoZkgne9-OnwIQ-yh-6HGEGtS-tZCGBwwiSr0x8xjm7TA492Ev9g6nY5ksRyp8O8gsAXg8VIz-n14p6QDVv4czthZuUySe4v7_S2kmHwvV]-->
    </g>
</svg>