<?xml version="1.0" encoding="us-ascii" standalone="no"?><svg xmlns="http://www.w3.org/2000/svg" xmlns:xlink="http://www.w3.org/1999/xlink" contentStyleType="text/css" height="533px" preserveAspectRatio="none" style="width:1400px;height:533px;background:#FFFFFF;" version="1.1" viewBox="0 0 1400 533" width="1400px" zoomAndPan="magnify"><defs/><g><rect fill="#DDDDDD" height="521.5859" style="stroke:#181818;stroke-width:0.5;" width="195" x="407.5" y="6"/><text fill="#000000" font-family="sans-serif" font-size="13" font-weight="bold" lengthAdjust="spacing" textLength="132" x="439" y="18.0669">Discovery Service</text><rect fill="#DDDDDD" height="521.5859" style="stroke:#181818;stroke-width:0.5;" width="179" x="604.5" y="6"/><text fill="#000000" font-family="sans-serif" font-size="13" font-weight="bold" lengthAdjust="spacing" textLength="122" x="633" y="18.0669">Registry Service</text><rect fill="#DDDDDD" height="521.5859" style="stroke:#181818;stroke-width:0.5;" width="194" x="785.5" y="6"/><text fill="#000000" font-family="sans-serif" font-size="13" font-weight="bold" lengthAdjust="spacing" textLength="188" x="788.5" y="18.0669">AAS or Submodel Service</text><rect fill="#DDDDDD" height="521.5859" style="stroke:#181818;stroke-width:0.5;" width="282" x="981.5" y="6"/><text fill="#000000" font-family="sans-serif" font-size="13" font-weight="bold" lengthAdjust="spacing" textLength="276" x="984.5" y="18.0669">AAS or Submodel Repository Service</text><line style="stroke:#181818;stroke-width:0.5;stroke-dasharray:5.0,5.0;" x1="253" x2="253" y1="56.4297" y2="493.2891"/><line style="stroke:#181818;stroke-width:0.5;stroke-dasharray:5.0,5.0;" x1="504.5" x2="504.5" y1="56.4297" y2="493.2891"/><line style="stroke:#181818;stroke-width:0.5;stroke-dasharray:5.0,5.0;" x1="693.5" x2="693.5" y1="56.4297" y2="493.2891"/><line style="stroke:#181818;stroke-width:0.5;stroke-dasharray:5.0,5.0;" x1="882.5" x2="882.5" y1="56.4297" y2="493.2891"/><line style="stroke:#181818;stroke-width:0.5;stroke-dasharray:5.0,5.0;" x1="1122" x2="1122" y1="56.4297" y2="493.2891"/><rect fill="#E2E2F0" height="30.2969" rx="2.5" ry="2.5" style="stroke:#181818;stroke-width:0.5;" width="144" x="181" y="25.1328"/><text fill="#000000" font-family="sans-serif" font-size="14" lengthAdjust="spacing" textLength="130" x="188" y="45.1279">Client Application</text><rect fill="#E2E2F0" height="30.2969" rx="2.5" ry="2.5" style="stroke:#181818;stroke-width:0.5;" width="144" x="181" y="492.2891"/><text fill="#000000" font-family="sans-serif" font-size="14" lengthAdjust="spacing" textLength="130" x="188" y="512.2842">Client Application</text><rect fill="#E2E2F0" height="30.2969" rx="2.5" ry="2.5" style="stroke:#181818;stroke-width:0.5;" width="187" x="411.5" y="25.1328"/><text fill="#000000" font-family="sans-serif" font-size="14" lengthAdjust="spacing" textLength="173" x="418.5" y="45.1279">AAS Discovery Interface</text><rect fill="#E2E2F0" height="30.2969" rx="2.5" ry="2.5" style="stroke:#181818;stroke-width:0.5;" width="187" x="411.5" y="492.2891"/><text fill="#000000" font-family="sans-serif" font-size="14" lengthAdjust="spacing" textLength="173" x="418.5" y="512.2842">AAS Discovery Interface</text><rect fill="#E2E2F0" height="30.2969" rx="2.5" ry="2.5" style="stroke:#181818;stroke-width:0.5;" width="171" x="608.5" y="25.1328"/><text fill="#000000" font-family="sans-serif" font-size="14" lengthAdjust="spacing" textLength="157" x="615.5" y="45.1279">AAS Registy Interface</text><rect fill="#E2E2F0" height="30.2969" rx="2.5" ry="2.5" style="stroke:#181818;stroke-width:0.5;" width="171" x="608.5" y="492.2891"/><text fill="#000000" font-family="sans-serif" font-size="14" lengthAdjust="spacing" textLength="157" x="615.5" y="512.2842">AAS Registy Interface</text><rect fill="#E2E2F0" height="30.2969" rx="2.5" ry="2.5" style="stroke:#181818;stroke-width:0.5;" width="156" x="804.5" y="25.1328"/><text fill="#000000" font-family="sans-serif" font-size="14" lengthAdjust="spacing" textLength="142" x="811.5" y="45.1279">Submodel Interface</text><rect fill="#E2E2F0" height="30.2969" rx="2.5" ry="2.5" style="stroke:#181818;stroke-width:0.5;" width="156" x="804.5" y="492.2891"/><text fill="#000000" font-family="sans-serif" font-size="14" lengthAdjust="spacing" textLength="142" x="811.5" y="512.2842">Submodel Interface</text><rect fill="#E2E2F0" height="30.2969" rx="2.5" ry="2.5" style="stroke:#181818;stroke-width:0.5;" width="239" x="1003" y="25.1328"/><text fill="#000000" font-family="sans-serif" font-size="14" lengthAdjust="spacing" textLength="225" x="1010" y="45.1279">Submodel Repository Interface</text><rect fill="#E2E2F0" height="30.2969" rx="2.5" ry="2.5" style="stroke:#181818;stroke-width:0.5;" width="239" x="1003" y="492.2891"/><text fill="#000000" font-family="sans-serif" font-size="14" lengthAdjust="spacing" textLength="225" x="1010" y="512.2842">Submodel Repository Interface</text><line style="stroke:#181818;stroke-width:1.0;" x1="253" x2="295" y1="87.5625" y2="87.5625"/><line style="stroke:#181818;stroke-width:1.0;" x1="295" x2="295" y1="87.5625" y2="100.5625"/><line style="stroke:#181818;stroke-width:1.0;" x1="254" x2="295" y1="100.5625" y2="100.5625"/><polygon fill="#181818" points="264,96.5625,254,100.5625,264,104.5625,260,100.5625" style="stroke:#181818;stroke-width:1.0;"/><text fill="#000000" font-family="sans-serif" font-size="13" lengthAdjust="spacing" textLength="109" x="260" y="82.4966">select asset links</text><polygon fill="#181818" points="493,125.6953,503,129.6953,493,133.6953,497,129.6953" style="stroke:#181818;stroke-width:1.0;"/><line style="stroke:#181818;stroke-width:1.0;" x1="253" x2="499" y1="129.6953" y2="129.6953"/><text fill="#000000" font-family="sans-serif" font-size="13" lengthAdjust="spacing" textLength="201" x="260" y="124.6294">POST /lookup/shellsByAssetLink</text><polygon fill="#181818" points="264,154.8281,254,158.8281,264,162.8281,260,158.8281" style="stroke:#181818;stroke-width:1.0;"/><line style="stroke:#181818;stroke-width:1.0;stroke-dasharray:2.0,2.0;" x1="258" x2="504" y1="158.8281" y2="158.8281"/><text fill="#000000" font-family="sans-serif" font-size="13" lengthAdjust="spacing" textLength="67" x="270" y="153.7622">IDs of AAS</text><line style="stroke:#181818;stroke-width:1.0;" x1="253" x2="295" y1="187.9609" y2="187.9609"/><line style="stroke:#181818;stroke-width:1.0;" x1="295" x2="295" y1="187.9609" y2="200.9609"/><line style="stroke:#181818;stroke-width:1.0;" x1="254" x2="295" y1="200.9609" y2="200.9609"/><polygon fill="#181818" points="264,196.9609,254,200.9609,264,204.9609,260,200.9609" style="stroke:#181818;stroke-width:1.0;"/><text fill="#000000" font-family="sans-serif" font-size="13" lengthAdjust="spacing" textLength="85" x="260" y="182.895">select AAS ID</text><polygon fill="#181818" points="682,226.0938,692,230.0938,682,234.0938,686,230.0938" style="stroke:#181818;stroke-width:1.0;"/><line style="stroke:#181818;stroke-width:1.0;" x1="253" x2="688" y1="230.0938" y2="230.0938"/><text fill="#000000" font-family="sans-serif" font-size="13" lengthAdjust="spacing" textLength="202" x="260" y="225.0278">GET /shell-descritpors/&lt;aas-id&gt;</text><polygon fill="#181818" points="264,255.2266,254,259.2266,264,263.2266,260,259.2266" style="stroke:#181818;stroke-width:1.0;"/><line style="stroke:#181818;stroke-width:1.0;stroke-dasharray:2.0,2.0;" x1="258" x2="693" y1="259.2266" y2="259.2266"/><text fill="#000000" font-family="sans-serif" font-size="13" lengthAdjust="spacing" textLength="313" x="270" y="254.1606">200: {AAS Descriptor with Submodel Endpoints}</text><line style="stroke:#181818;stroke-width:1.0;" x1="253" x2="295" y1="288.3594" y2="288.3594"/><line style="stroke:#181818;stroke-width:1.0;" x1="295" x2="295" y1="288.3594" y2="301.3594"/><line style="stroke:#181818;stroke-width:1.0;" x1="254" x2="295" y1="301.3594" y2="301.3594"/><polygon fill="#181818" points="264,297.3594,254,301.3594,264,305.3594,260,301.3594" style="stroke:#181818;stroke-width:1.0;"/><text fill="#000000" font-family="sans-serif" font-size="13" lengthAdjust="spacing" textLength="238" x="260" y="283.2935">extract relevant Submodel Endpoints</text><polygon fill="#181818" points="870.5,329.4922,880.5,333.4922,870.5,337.4922,874.5,333.4922" style="stroke:#181818;stroke-width:1.0;"/><line style="stroke:#181818;stroke-width:1.0;" x1="253" x2="876.5" y1="333.4922" y2="333.4922"/><text fill="#000000" font-family="sans-serif" font-size="13" lengthAdjust="spacing" textLength="97" x="260" y="328.4263">GET /submodel</text><path d="M26,314.3594 L26,339.3594 L248,339.3594 L248,324.3594 L238,314.3594 L26,314.3594 " fill="#FEFFDD" style="stroke:#181818;stroke-width:0.5;"/><path d="M238,314.3594 L238,324.3594 L248,324.3594 L238,314.3594 " fill="#FEFFDD" style="stroke:#181818;stroke-width:0.5;"/><text fill="#000000" font-family="sans-serif" font-size="13" lengthAdjust="spacing" textLength="201" x="32" y="331.4263">get first Submodel via Endpoint</text><polygon fill="#181818" points="264,361.625,254,365.625,264,369.625,260,365.625" style="stroke:#181818;stroke-width:1.0;"/><line style="stroke:#181818;stroke-width:1.0;stroke-dasharray:2.0,2.0;" x1="258" x2="881.5" y1="365.625" y2="365.625"/><text fill="#000000" font-family="sans-serif" font-size="13" lengthAdjust="spacing" textLength="115" x="270" y="360.5591">200: {Submodel}</text><polygon fill="#181818" points="1110.5,442.1563,1120.5,446.1563,1110.5,450.1563,1114.5,446.1563" style="stroke:#181818;stroke-width:1.0;"/><line style="stroke:#181818;stroke-width:1.0;" x1="253" x2="1116.5" y1="446.1563" y2="446.1563"/><text fill="#000000" font-family="sans-serif" font-size="13" lengthAdjust="spacing" textLength="508" x="260" y="441.0903">GET /shells/&lt;aas-id&gt;/submodels/&lt;submodel-id&gt; or /submodels/&lt;submodel-id&gt;</text><path d="M5,401.3242 L5,426.3242 L248,426.3242 L248,411.3242 L238,401.3242 L5,401.3242 " fill="#FEFFDD" style="stroke:#181818;stroke-width:0.5;"/><path d="M238,401.3242 L238,411.3242 L248,411.3242 L238,401.3242 " fill="#FEFFDD" style="stroke:#181818;stroke-width:0.5;"/><text fill="#000000" font-family="sans-serif" font-size="13" lengthAdjust="spacing" textLength="222" x="11" y="418.3911">get second Submodel via Endpoint</text><path d="M1127,378.625 L1127,448.625 L1393,448.625 L1393,388.625 L1383,378.625 L1127,378.625 " fill="#FEFFDD" style="stroke:#181818;stroke-width:0.5;"/><path d="M1383,378.625 L1383,388.625 L1393,388.625 L1383,378.625 " fill="#FEFFDD" style="stroke:#181818;stroke-width:0.5;"/><text fill="#000000" font-family="sans-serif" font-size="13" lengthAdjust="spacing" textLength="217" x="1133" y="395.6919">for the client it is not visible which</text><text fill="#000000" font-family="sans-serif" font-size="13" lengthAdjust="spacing" textLength="241" x="1133" y="410.8247">API-operation is called since the client</text><text fill="#000000" font-family="sans-serif" font-size="13" lengthAdjust="spacing" textLength="215" x="1133" y="425.9575">application just uses the endpoint</text><text fill="#000000" font-family="sans-serif" font-size="13" lengthAdjust="spacing" textLength="154" x="1133" y="441.0903">provided by the registry</text><polygon fill="#181818" points="264,471.2891,254,475.2891,264,479.2891,260,475.2891" style="stroke:#181818;stroke-width:1.0;"/><line style="stroke:#181818;stroke-width:1.0;stroke-dasharray:2.0,2.0;" x1="258" x2="1121.5" y1="475.2891" y2="475.2891"/><text fill="#000000" font-family="sans-serif" font-size="13" lengthAdjust="spacing" textLength="115" x="270" y="470.2231">200: {Submodel}</text><!--SRC=[ZLHTQzmm47pNhrZktLpeema1jnVAGKD3t3-WazVdRLHBQ7LEZfB_Nad-lCjTKZ3Oh6PcHxEoh7IU55dPUlYc2SDBCgo6py9QJKfwCkrA2B4phx3Q42lJeJj2YQuZXIi1O1SoHL7Ec2WM2Z1Njgr7Lyl8mxQ2e3a8F-6Us9_gdWjFc56tBtoW6a76GNdO_J4LwckcgNn8cXFklmMVq1ecRwu7KZv4pAdyWdMfqv1_TZSE9GT6ZIfEXz63flQPbx1bw3ay_Yn_mLeRytomQsvGQ_vwB2BpHo2EjDiiEnrM3jiDWwbZzGCBCO7jHfordqQJm_Vxq3srpIfavSXRutXzAoLdLDsTzLyGlzpSvF0tdPV4io4WU27Vp77VjvKrr7f-k-GGNxsJmQ8BJhkK_JlUYUyuzj7lW1IjyGWQQo_s8UcQ72zaEfAJL1fNH2ytr2ls6nbPRykM_MbOXZGdCva8fV4prkE1kxPsvfTHcM3h4yE9usZVU547RTyWgDuXXOSZA32PTXhXfI7LYE9ncncBBbq64QAarbW1KwjmAI3aV6d0xqC8xy382O6Z3-jCHrLWxuvfmGr7u6AYm-_pBjH_]--></g></svg>